0
SECTION
2
HEADER
9
$INSUNITS
70
4
9
$ACADVER
1
AC1014
9
$HANDSEED
5
FFFF
0
ENDSEC
0
SECTION
2
TABLES
0
TABLE
2
VPORT
5
8
100
AcDbSymbolTable
0
ENDTAB
0
TABLE
2
LTYPE
5
5
100
AcDbSymbolTable
0
LTYPE
5
14
100
AcDbSymbolTableRecord
100
AcDbLinetypeTableRecord
2
BYBLOCK
70
0
0
LTYPE
5
15
100
AcDbSymbolTableRecord
100
AcDbLinetypeTableRecord
2
BYLAYER
70
0
0
ENDTAB
0
TABLE
2
LAYER
5
2
100
AcDbSymbolTable
70
2
0
LAYER
5
50
100
AcDbSymbolTableRecord
100
AcDbLayerTableRecord
2
0
70
0
6
CONTINUOUS
0
ENDTAB
0
TABLE
2
STYLE
5
3
100
AcDbSymbolTable
70
1
0
STYLE
5
11
100
AcDbSymbolTableRecord
100
AcDbTextStyleTableRecord
2
STANDARD
70
0
0
ENDTAB
0
TABLE
2
VIEW
5
6
100
AcDbSymbolTable
70
0
0
ENDTAB
0
TABLE
2
UCS
5
7
100
AcDbSymbolTable
70
0
0
ENDTAB
0
TABLE
2
APPID
5
9
100
AcDbSymbolTable
70
2
0
APPID
5
12
100
AcDbSymbolTableRecord
100
AcDbRegAppTableRecord
2
ACAD
70
0
0
ENDTAB
0
TABLE
2
DIMSTYLE
5
A
100
AcDbSymbolTable
70
1
0
ENDTAB
0
TABLE
2
BLOCK_RECORD
5
1
100
AcDbSymbolTable
70
1
0
BLOCK_RECORD
5
1F
100
AcDbSymbolTableRecord
100
AcDbBlockTableRecord
2
*MODEL_SPACE
0
BLOCK_RECORD
5
1B
100
AcDbSymbolTableRecord
100
AcDbBlockTableRecord
2
*PAPER_SPACE
0
ENDTAB
0
ENDSEC
0
SECTION
2
BLOCKS
0
BLOCK
5
20
100
AcDbEntity
100
AcDbBlockBegin
2
*MODEL_SPACE
0
ENDBLK
5
21
100
AcDbEntity
100
AcDbBlockEnd
0
BLOCK
5
1C
100
AcDbEntity
100
AcDbBlockBegin
2
*PAPER_SPACE
0
ENDBLK
5
1D
100
AcDbEntity
100
AcDbBlockEnd
0
ENDSEC
0
SECTION
2
ENTITIES
0
LINE
5
100
100
AcDbEntity
8
0
100
AcDbLine
10
15.607695154586612
20
95.071796769724557
30
0
11
6.4999999999999964
21
100.33012701892221
31
0
0
LINE
5
101
100
AcDbEntity
8
0
100
AcDbLine
10
16.00000045923036
20
83.298293812691469
30
0
11
1.5000000000000013
21
91.66987298107783
31
0
0
ARC
5
102
100
AcDbEntity
8
0
100
AcDbCircle
10
12.000000459230364
20
76.370090582415969
30
0
40
7.9999999999999876
210
-0
220
0
230
1
100
AcDbArc
50
0
51
60.000000000000007
0
LINE
5
103
100
AcDbEntity
8
0
100
AcDbLine
10
20.00000045923035
20
76.370090534310194
30
0
11
20.000000135148429
21
22.475208607910879
31
0
0
ARC
5
104
100
AcDbEntity
8
0
100
AcDbCircle
10
14.000000135148433
20
22.475208643990214
30
0
40
5.9999999999999973
210
-0
220
0
230
1
100
AcDbArc
50
300.00000000000006
51
360
0
LINE
5
105
100
AcDbEntity
8
0
100
AcDbLine
10
17.000000135148433
20
17.279056221283582
30
0
11
1.5000000000000191
21
8.3301269708164085
31
0
0
LINE
5
106
100
AcDbEntity
8
0
100
AcDbLine
10
16.07179685304617
20
5.196152422706632
30
0
11
6.5000000000000195
21
-0.33012706702797434
31
0
0
ARC
5
107
100
AcDbEntity
8
0
100
AcDbCircle
10
19.071796853046173
20
-4.4408920985006262e-15
30
0
40
6.0000000000000053
210
0
220
-0
230
1
100
AcDbArc
50
90
51
120.00000000000001
0
LINE
5
108
100
AcDbEntity
8
0
100
AcDbLine
10
143.61522368914981
20
6.0000000000000009
30
0
11
19.071796853046177
21
6.0000000000000009
31
0
0
ARC
5
109
100
AcDbEntity
8
0
100
AcDbCircle
10
143.61522368914981
20
-1.999999999999857
30
0
40
7.9999999999998659
210
0
220
-0
230
1
100
AcDbArc
50
45.000000000000028
51
90
0
LINE
5
110
100
AcDbEntity
8
0
100
AcDbLine
10
149.2720779386421
20
3.6568542494924361
30
0
11
152.46446609406726
21
0.4644660940672507
31
0
0
LINE
5
111
100
AcDbEntity
8
0
100
AcDbLine
10
156.34314584903285
20
10.727921962832582
30
0
11
159.53553390593274
21
7.53553390593272
31
0
0
ARC
5
112
100
AcDbEntity
8
0
100
AcDbCircle
10
162.00000009852522
20
16.384776212324905
30
0
40
7.9999999999999183
210
0
220
0
230
1
100
AcDbArc
50
180
51
224.99999999999989
0
LINE
5
113
100
AcDbEntity
8
0
100
AcDbLine
10
154.00000050279695
20
83.615224240052612
30
0
11
154.00000009852531
21
16.38477626043068
31
0
0
ARC
5
114
100
AcDbEntity
8
0
100
AcDbCircle
10
162.00000050279684
20
83.615224191946837
30
0
40
7.9999999999998579
210
0
220
0
230
1
100
AcDbArc
50
135.00000000000009
51
180
0
LINE
5
115
100
AcDbEntity
8
0
100
AcDbLine
10
156.34314625330455
20
89.272078441439106
30
0
11
159.53553390593277
21
92.464466094067248
31
0
0
LINE
5
116
100
AcDbEntity
8
0
100
AcDbLine
10
149.27207793864221
20
96.343145750507631
30
0
11
152.46446609406726
21
99.535533905932738
31
0
0
ARC
5
117
100
AcDbEntity
8
0
100
AcDbCircle
10
143.61522368914979
20
102.00000000000003
30
0
40
8.0000000000000249
210
-0
220
0
230
1
100
AcDbArc
50
270
51
315.00000000000017
0
ARC
5
118
100
AcDbEntity
8
0
100
AcDbCircle
10
19.607695154586811
20
102.0000000000004
30
0
40
8.0000000000003908
210
0
220
0
230
1
100
AcDbArc
50
239.99999999999994
51
270
0
CIRCLE
5
119
100
AcDbEntity
8
0
100
AcDbCircle
10
4
20
96
30
0
40
2.25
210
0
220
-0
230
1
0
CIRCLE
5
120
100
AcDbEntity
8
0
100
AcDbCircle
10
156
20
96
30
0
40
2.25
210
0
220
-0
230
1
0
CIRCLE
5
121
100
AcDbEntity
8
0
100
AcDbCircle
10
156
20
4.0000000000000036
30
0
40
2.25
210
0
220
-0
230
1
0
CIRCLE
5
122
100
AcDbEntity
8
0
100
AcDbCircle
10
4.0000000000000187
20
4.0000000000000036
30
0
40
2.25
210
0
220
-0
230
1
0
LINE
5
123
100
AcDbEntity
8
0
100
AcDbLine
10
45
20
94.000000000000028
30
0
11
45
21
97.400000000000006
31
0
0
LINE
5
124
100
AcDbEntity
8
0
100
AcDbLine
10
63
20
97.400000000000006
30
0
11
63
21
94
31
0
0
LINE
5
125
100
AcDbEntity
8
0
100
AcDbLine
10
45
20
97.400000000000006
30
0
11
63
21
97.400000000000006
31
0
0
ARC
5
126
100
AcDbEntity
8
0
100
AcDbCircle
10
4
20
96
30
0
40
4.9999999999999991
210
0
220
-0
230
1
100
AcDbArc
50
53.13010235415603
51
239.99999999999977
0
ARC
5
127
100
AcDbEntity
8
0
100
AcDbCircle
10
4.0000000000000187
20
3.9999999518942184
30
0
40
4.9999999999999991
210
0
220
0
230
1
100
AcDbArc
50
119.99999999999999
51
306.86989856459672
0
ARC
5
128
100
AcDbEntity
8
0
100
AcDbCircle
10
156
20
4.0000000000000036
30
0
40
5.0000000000000053
210
0
220
0
230
1
100
AcDbArc
50
-134.99999999999991
51
45.000000000000121
0
ARC
5
129
100
AcDbEntity
8
0
100
AcDbCircle
10
156
20
96
30
0
40
5.0000000000000275
210
-0
220
0
230
1
100
AcDbArc
50
-44.999999999999901
51
135.00000000000023
0
LINE
5
130
100
AcDbEntity
8
0
100
AcDbLine
10
143.61522368914979
20
94
30
0
11
62.999999999999986
21
94
31
0
0
LINE
5
131
100
AcDbEntity
8
0
100
AcDbLine
10
45
20
94.000000000000028
30
0
11
19.60769515458685
21
94
31
0
0
CIRCLE
5
132
100
AcDbEntity
8
0
100
AcDbCircle
10
25
20
70
30
0
40
1.5000000000000011
210
0
220
-0
230
1
0
CIRCLE
5
133
100
AcDbEntity
8
0
100
AcDbCircle
10
56.999999999999993
20
70
30
0
40
1.5000000000000022
210
0
220
-0
230
1
0
CIRCLE
5
134
100
AcDbEntity
8
0
100
AcDbCircle
10
56.999999999999993
20
37.999999999999993
30
0
40
1.4999999999999982
210
0
220
-0
230
1
0
CIRCLE
5
135
100
AcDbEntity
8
0
100
AcDbCircle
10
25
20
37.999999999999993
30
0
40
1.5000000000000022
210
0
220
-0
230
1
0
ENDSEC
0
SECTION
2
OBJECTS
0
DICTIONARY
5
C
100
AcDbDictionary
3
ACAD_GROUP
350
D
3
ACAD_MLINESTYLE
350
17
0
DICTIONARY
5
D
100
AcDbDictionary
0
DICTIONARY
5
1A
330
C
100
AcDbDictionary
0
DICTIONARY
5
17
100
AcDbDictionary
0
ENDSEC
0
EOF
